<svg xmlns="http://www.w3.org/2000/svg" xmlns:xlink="http://www.w3.org/1999/xlink" width="265" height="265" shape-rendering="geometricPrecision" image-rendering="optimizeQuality" fill-rule="evenodd" xmlns:v="https://vecta.io/nano"><g fill="#f9af40"><use xlink:href="#B" opacity=".937"/><path d="M70.5 74.5c2.155-.128 4.155.372 6 1.5 6.957 6.116 12.957 12.949 18 20.5-1.489 5.578-4.822 7.078-10 4.5L67 83.5c-1.335-4.108-.168-7.108 3.5-9z" opacity=".876"/><path d="M185.5 74.5c6.826.314 8.993 3.647 6.5 10L175.5 101c-7.257 2.746-10.423.246-9.5-7.5 6.395-6.564 12.895-12.897 19.5-19z" opacity=".872"/><path d="M122.5 95.5c25.039-1.749 41.206 9.251 48.5 33 3.021 26.801-8.479 43.634-34.5 50.5-31.346.987-47.513-14.18-48.5-45.5 2.989-20.485 14.489-33.152 34.5-38z" opacity=".977"/><path d="M45.5 132.5a421.11 421.11 0 0 1 29 .5c2.667 3.333 2.667 6.667 0 10-9.667.667-19.333.667-29 0-3.895-3.489-3.895-6.989 0-10.5z" opacity=".926"/><path d="M185.5 132.5c9.672-.166 19.339 0 29 .5 2.667 3.333 2.667 6.667 0 10-9.667.667-19.333.667-29 0-3.935-3.496-3.935-6.996 0-10.5z" opacity=".921"/><path d="M86.5 173.5c6.826.314 8.993 3.647 6.5 10L76.5 200c-7.255 2.626-10.422.126-9.5-7.5a519.14 519.14 0 0 1 19.5-19zm83 0c2.155-.128 4.155.372 6 1.5 6.957 6.116 12.957 12.949 18 20.5-1.489 5.578-4.822 7.078-10 4.5L166 182.5c-1.335-4.108-.168-7.108 3.5-9z" opacity=".875"/><use xlink:href="#B" y="140" opacity=".937"/></g><defs ><path id="B" d="M128.5 50.5c2.599.049 4.766 1.049 6.5 3 .667 9.667.667 19.333 0 29-3.333 4-6.667 4-10 0-.667-9.667-.667-19.333 0-29 1.145-1.136 2.312-2.136 3.5-3z"/></defs></svg>