<svg xmlns="http://www.w3.org/2000/svg" width="265" height="265" shape-rendering="geometricPrecision" image-rendering="optimizeQuality" fill-rule="evenodd" xmlns:v="https://vecta.io/nano"><g fill="#f9af40"><path d="M94.5 36.5c3.99-.885 6.823.449 8.5 4 .667 8.667.667 17.333 0 26-1.691 3.713-4.525 4.879-8.5 3.5-1.201-.903-2.035-2.069-2.5-3.5a169.24 169.24 0 0 1 0-26c.662-1.484 1.496-2.817 2.5-4z" opacity=".883"/><path d="M37.5 60.5c2.489-.202 4.822.298 7 1.5L61 78.5c1.833 7.5-1 10.333-8.5 8.5L35 69.5c-1.07-3.642-.236-6.642 2.5-9z" opacity=".889"/><path d="M152.5 60.5c7.003-.827 9.503 2.173 7.5 9L142.5 87c-7.5 1.833-10.333-1-8.5-8.5 6.062-6.23 12.229-12.23 18.5-18z" opacity=".885"/></g><path fill="#f9af41" d="M131.5 97.5c-11.973 10.612-18.639 23.946-20 40-14.785 2.139-26.119 9.473-34 22-12.273-6.168-19.439-16.168-21.5-30-1.16-29.007 12.674-45.34 41.5-49 13.858.929 25.191 6.595 34 17z" opacity=".979"/><path fill="#42beec" d="M77.5 159.5c7.881-12.527 19.215-19.861 34-22 1.361-16.054 8.027-29.388 20-40 15.801-10.7 32.801-12.866 51-6.5 20.002 9.5 30.335 25.333 31 47.5 24.882 2.716 38.549 16.549 41 41.5-1.817 20.994-12.817 34.327-33 40a3362.57 3362.57 0 0 1-116 0c-25.136-8.091-35.636-25.258-31.5-51.5.881-3.147 2.047-6.147 3.5-9z" opacity=".991"/><g fill="#f9af40"><path d="M14.5 117.5c8.673-.166 17.34 0 26 .5 4.914 3.171 5.248 6.837 1 11a182.41 182.41 0 0 1-27 0c-3.713-1.691-4.879-4.525-3.5-8.5 1.145-1.136 2.312-2.136 3.5-3z" opacity=".882"/><path d="M53.5 159.5c7.003-.827 9.503 2.173 7.5 9L43.5 186c-8.431 1.567-10.931-1.6-7.5-9.5 5.729-5.897 11.562-11.564 17.5-17z" opacity=".886"/></g></svg>