<svg xmlns="http://www.w3.org/2000/svg" width="265" height="265" shape-rendering="geometricPrecision" image-rendering="optimizeQuality" fill-rule="evenodd" xmlns:v="https://vecta.io/nano"><path fill="#42bfed" d="M173.5 181.5c-5.3-14.406-11.466-28.406-18.5-42-7.358 13.71-13.858 27.71-19.5 42h-23l-10-18-10 18c-22.628 3.437-39.128-4.896-49.5-25-7.693-31.444 4.14-50.778 35.5-58 5.128-34.635 25.128-51.135 60-49.5 21.967 4.715 35.8 17.882 41.5 39.5a60.93 60.93 0 0 1 .5 11c21.576 1.745 35.076 13.079 40.5 34 2.268 24.384-8.232 40.218-31.5 47.5-5.323.499-10.656.666-16 .5z" opacity=".989"/><g fill="#ade0f3"><path d="M173.5 181.5c1.263 10.302-2.404 18.135-11 23.5-18.283 3.233-27.283-4.6-27-23.5 5.642-14.29 12.142-28.29 19.5-42 7.034 13.594 13.2 27.594 18.5 42z" opacity=".98"/><path d="M112.5 181.5l7.5 17c3.602 11.182 1.102 20.682-7.5 28.5-14.525 5.819-24.025 1.319-28.5-13.5a36.25 36.25 0 0 1 0-12 266.18 266.18 0 0 1 8.5-20l10-18 10 18z" opacity=".965"/></g></svg>