<svg xmlns="http://www.w3.org/2000/svg" width="265" height="265" shape-rendering="geometricPrecision" image-rendering="optimizeQuality" fill-rule="evenodd" xmlns:v="https://vecta.io/nano"><path fill="#82d1eb" d="M162.5 91.5c-24.261-.543-41.428 10.124-51.5 32-1.967 6.197-3.133 12.53-3.5 19-22.822 2.488-35.822 15.155-39 38-32.925-1.094-48.092-18.094-45.5-51 5.436-19.605 18.269-30.272 38.5-32 2.535-31.035 19.368-48.035 50.5-51 28.345 2.182 45.178 17.182 50.5 45z" opacity=".985"/><path fill="#42bfec" d="M162.5 91.5c23.774 3.61 38.94 16.944 45.5 40a60.93 60.93 0 0 1 .5 11c21.578 1.746 35.078 13.08 40.5 34 2.027 27.972-10.807 44.139-38.5 48.5-34.333.667-68.667.667-103 0-20.162-2.163-32.996-12.996-38.5-32.5a72.44 72.44 0 0 1-.5-12c3.178-22.845 16.178-35.512 39-38 .367-6.47 1.533-12.803 3.5-19 10.072-21.876 27.239-32.543 51.5-32z" opacity=".989"/></svg>