<svg xmlns="http://www.w3.org/2000/svg" width="265" height="265" shape-rendering="geometricPrecision" image-rendering="optimizeQuality" fill-rule="evenodd" xmlns:v="https://vecta.io/nano"><path fill="#42bfed" d="M194.5 184.5h-1-23l-1.5-65c-2.267-1.435-4.267-1.102-6 1a2047.17 2047.17 0 0 0-.5 64h-22c.165-3.018-.002-6.018-.5-9-2.084-2.533-4.084-2.533-6 0-.181 3.195-.681 6.195-1.5 9h-21a308.5 308.5 0 0 1-1.5-25c-1.796-1.267-3.629-1.267-5.5 0-.998 8.307-1.331 16.64-1 25h-22a40.94 40.94 0 0 0-.5-9c-1.845-1.85-3.845-2.183-6-1-.183 2.865-.683 5.531-1.5 8-20.969-9.17-29.803-25.17-26.5-48 4.982-20.148 17.816-31.148 38.5-33 2.415-31.248 19.248-47.915 50.5-50 26.383 1.191 43.049 14.524 50 40a60.93 60.93 0 0 1 .5 11c22.116 1.133 35.616 12.466 40.5 34 1.962 24.842-8.871 40.842-32.5 48z" opacity=".987"/><path fill="#ade0f3" d="M105.5 107.5c1.43-.079 2.764.254 4 1a254.02 254.02 0 0 1 .5 39c-2.267 1.435-4.267 1.102-6-1a342.33 342.33 0 0 1 0-37c.717-.544 1.217-1.211 1.5-2z"/><path fill="#abe0f3" d="M170.5 184.5c.165 3.35-.002 6.683-.5 10-2.025 2.225-4.358 2.559-7 1a60.93 60.93 0 0 1-.5-11 2047.17 2047.17 0 0 1 .5-64c1.733-2.102 3.733-2.435 6-1l1.5 65z" opacity=".974"/><path fill="#aadff3" d="M75.5 131.5c2.222-.322 4.056.345 5.5 2a169.24 169.24 0 0 1 0 26c-1.733 2.102-3.733 2.435-6 1-.806-9.744-.639-19.411.5-29z"/><path fill="#ade0f3" d="M134.5 132.5c2.222-.322 4.056.345 5.5 2a144.18 144.18 0 0 1 0 24c-1.733 2.102-3.733 2.435-6 1-.777-9.048-.611-18.048.5-27z"/><path fill="#ace0f3" d="M194.5 144.5c1.89-.203 3.39.463 4.5 2a100.2 100.2 0 0 1 0 20c-2 2.667-4 2.667-6 0a100.2 100.2 0 0 1 0-20c.717-.544 1.217-1.211 1.5-2z"/><g fill="#ade0f3"><path d="M111.5 184.5c-1.553 2.754-3.886 3.587-7 2.5-.752-.671-1.086-1.504-1-2.5-.331-8.36.002-16.693 1-25 1.871-1.267 3.704-1.267 5.5 0a308.5 308.5 0 0 0 1.5 25z" opacity=".981"/><path d="M140.5 184.5a924.22 924.22 0 0 1-.5 43c-2.592 1.482-4.925 1.148-7-1-.5-13.996-.667-27.996-.5-42 .819-2.805 1.319-5.805 1.5-9 1.916-2.533 3.916-2.533 6 0 .498 2.982.665 5.982.5 9z" opacity=".919"/><path d="M81.5 184.5c.167 14.337 0 28.671-.5 43-2.642 1.559-4.975 1.225-7-1a968.44 968.44 0 0 1-.5-44c.817-2.469 1.317-5.135 1.5-8 2.155-1.183 4.155-.85 6 1a40.94 40.94 0 0 1 .5 9z" opacity=".912"/></g><g fill="#ade1f3"><path d="M193.5 184.5h1c2.738-.535 4.572.465 5.5 3a380.31 380.31 0 0 1 0 39c-2.075 2.148-4.408 2.482-7 1-.815-14.408-.648-28.741.5-43z" opacity=".895"/><path d="M104.5 203.5c2.544-.396 4.711.271 6.5 2 .667 7 .667 14 0 21-2.075 2.148-4.408 2.482-7 1-.8-8.079-.633-16.079.5-24z" opacity=".884"/><path d="M163.5 203.5c2.579-.417 4.746.25 6.5 2 .813 7.58.647 15.08-.5 22.5-2.269.758-4.436.591-6.5-.5-.8-8.079-.633-16.079.5-24z" opacity=".87"/></g></svg>