<svg enable-background="new 0 0 122.879 119.799" height="119.799" viewBox="0 0 122.879 119.799" width="122.879" xmlns="http://www.w3.org/2000/svg"><path d="m49.988 0h.016v.007c13.799.004 26.294 5.601 35.336 14.645 9.027 9.031 14.619 21.515 14.628 35.303h.007v.033.04h-.007c-.005 5.557-.917 10.905-2.594 15.892-.281.837-.575 1.641-.877 2.409v.007c-1.446 3.66-3.315 7.12-5.547 10.307l29.082 26.139.018.016.157.146.011.011c1.642 1.563 2.536 3.656 2.649 5.78.11 2.1-.543 4.248-1.979 5.971l-.011.016-.175.203-.035.035-.146.16-.016.021c-1.565 1.642-3.654 2.534-5.78 2.646-2.097.111-4.247-.54-5.971-1.978l-.015-.011-.204-.175-.029-.024-29.745-26.734c-.88.62-1.778 1.209-2.687 1.765-1.233.755-2.51 1.466-3.813 2.115-6.699 3.342-14.269 5.222-22.272 5.222v.007h-.016v-.007c-13.799-.004-26.296-5.601-35.338-14.645-9.03-9.031-14.619-21.517-14.628-35.301h-.007v-.033-.016h.007c.004-13.799 5.601-26.296 14.645-35.338 9.031-9.026 21.515-14.618 35.303-14.627v-.007zm.016 11.21v.007h-.016-.033v-.007c-10.686.007-20.372 4.35-27.384 11.359-7.011 7.009-11.358 16.705-11.361 27.404h.007v.016.033h-.007c.007 10.686 4.347 20.367 11.359 27.381 7.009 7.012 16.705 11.359 27.403 11.361v-.007h.016.033v.007c10.686-.007 20.368-4.348 27.382-11.359 7.011-7.009 11.358-16.702 11.36-27.4h-.006v-.016-.033h.006c-.006-10.686-4.35-20.372-11.358-27.384-7.009-7.012-16.702-11.359-27.401-11.362z"/></svg>