<svg xmlns="http://www.w3.org/2000/svg" width="265" height="265" shape-rendering="geometricPrecision" image-rendering="optimizeQuality" fill-rule="evenodd" xmlns:v="https://vecta.io/nano"><path fill="#42bfed" d="M174.5 179.5c-1.122-1.788-1.289-3.788-.5-6 4.315-5.149 8.815-10.149 13.5-15a214.07 214.07 0 0 0-20-4.5c-4.044-5.919-7.711-12.086-11-18.5a301.63 301.63 0 0 1-12 18.5l-20 4a138.27 138.27 0 0 0 13.5 14.5c.796 2.539.629 4.872-.5 7a2047.16 2047.16 0 0 1-64-.5c-24.316-7.004-35.149-23.171-32.5-48.5 5.161-19.993 17.994-31.326 38.5-34 1.357-24.549 13.69-40.715 37-48.5 28.508-5.663 49.008 4.504 61.5 30.5 2.03 6.178 3.196 12.512 3.5 19 29.16 3.971 42.326 20.638 39.5 50-6.992 22.92-22.492 33.587-46.5 32z" opacity=".988"/><path fill="#ade0f3" d="M174.5 179.5l2 16c-6.758-2.793-13.591-5.46-20.5-8-6.213 2.522-12.379 5.189-18.5 8-.677-5.292-.677-10.626 0-16 1.129-2.128 1.296-4.461.5-7a138.27 138.27 0 0 1-13.5-14.5l20-4a301.63 301.63 0 0 0 12-18.5c3.289 6.414 6.956 12.581 11 18.5a214.07 214.07 0 0 1 20 4.5c-4.685 4.851-9.185 9.851-13.5 15-.789 2.212-.622 4.212.5 6z" opacity=".981"/><path fill="#ade1f3" d="M99.5 185.5c3.45 4.197 6.45 8.864 9 14l17 4.5a89.99 89.99 0 0 0-10.5 11.5c.101 5.705-.065 11.372-.5 17l-14-6-14 6a116.69 116.69 0 0 1-.5-17A269.68 269.68 0 0 1 75.5 204a171.92 171.92 0 0 1 16-4 102.92 102.92 0 0 0 8-14.5z" opacity=".929"/></svg>