<svg xmlns="http://www.w3.org/2000/svg" width="285" height="265" shape-rendering="geometricPrecision" image-rendering="optimizeQuality" fill-rule="evenodd" xmlns:v="https://vecta.io/nano"><path fill="#42bfed" d="M185.5 126.5c-5.151.827-10.484 1.327-16 1.5-5.257 4.156-5.257 8.489 0 13a180.87 180.87 0 0 0 19 .5v7c-26.669-.167-53.335 0-80 .5-4.936 3.958-5.269 8.291-1 13l76 1.5c-6.104 10.396-15.104 16.896-27 19.5a3420.79 3420.79 0 0 1-117 0C15.823 175.495 5.323 159.328 8 134.5c5.161-19.993 17.994-31.326 38.5-34 1.451-22.945 12.784-38.778 34-47.5 29.581-7.485 51.081 2.348 64.5 29.5 2.03 6.178 3.196 12.512 3.5 19 17.346 1.156 29.679 9.489 37 25z" opacity=".989"/><g fill="#ade0f3"><path d="M188.5 141.5a180.87 180.87 0 0 1-19-.5c-5.257-4.511-5.257-8.844 0-13 5.516-.173 10.849-.673 16-1.5l71-.5c6.295-2.425 8.462-6.925 6.5-13.5a15.96 15.96 0 0 0-6.5-5.5l-16-1c-1.431-.465-2.597-1.299-3.5-2.5a16.24 16.24 0 0 1 0-8c.5-1.833 1.667-3 3.5-3.5 13.092-3.106 24.259.061 33.5 9.5 4.728 7.816 5.728 16.149 3 25-3.545 7.532-9.378 12.365-17.5 14.5l-71 .5z" opacity=".949"/><path d="M188.5 148.5a840.27 840.27 0 0 1 41 .5c24.741 8.969 34.241 26.469 28.5 52.5-6.697 18.767-19.864 26.267-39.5 22.5-16.47-6.099-23.97-17.932-22.5-35.5 6.468-15.98 17.634-20.48 33.5-13.5 8.927 6.872 11.76 15.706 8.5 26.5-4.204 3.955-8.371 3.955-12.5 0a65.75 65.75 0 0 1-1.5-10c-4.333-6.667-8.667-6.667-13 0-.101 11.073 5.399 17.406 16.5 19 11.11-2.455 16.777-9.455 17-21-.028-12.841-6.028-21.341-18-25.5a924.22 924.22 0 0 0-43-.5l-76-1.5c-4.269-4.709-3.936-9.042 1-13l80-.5z" opacity=".954"/></g></svg>